<svg xmlns="http://www.w3.org/2000/svg" viewBox="0 0 704 704"><g id="Layer_2" data-name="Layer 2"><g id="Layer_1-2" data-name="Layer 1"><rect width="704" height="704" fill="#ff7809"/><rect x="158.9" y="531.57" width="370.13" height="54.77" fill="#fff"/><path d="M204,257.45h0A50.44,50.44,0,0,0,154,304L135.08,586.31h54.8L211.63,265.6l0-8.15Z" fill="#fff"/><path d="M550,304v0A50.41,50.41,0,0,0,500,257.45h-8.14l22.3,328.86h54.8Z" fill="#fff"/><rect x="243.43" y="257.48" width="218.85" height="54.77" fill="#fff"/><path d="M243.43,179.32v43.19H298.2V165.13H407.51v55.59h54.77v-41.4a71.57,71.57,0,0,0-71.57-71.57H315A71.58,71.58,0,0,0,243.43,179.32Z" fill="#fff"/></g></g></svg>